<svg id="Group_8200" data-name="Group 8200" xmlns="http://www.w3.org/2000/svg" width="129.937" height="111.229" viewBox="0 0 129.937 111.229">
  <path id="Path_8615" data-name="Path 8615" d="M349.936,584.432a8.419,8.419,0,0,0,3.021-7.257,6.806,6.806,0,0,0-5.06-5.778,5.729,5.729,0,0,0-6.523,3.625c-.446-5.027-.96-10.266-3.633-14.547a15.406,15.406,0,0,0-11.155-7.147,13.823,13.823,0,0,0-12.16,4.964,12.545,12.545,0,0,0-1.543,12.916c1.462,3.033,4.155,5.29,6.977,7.126a45.03,45.03,0,0,0,30.8,6.737" transform="translate(-311.75 -474.363)" fill="#f2f2f2"/>
  <path id="Path_8616" data-name="Path 8616" d="M340.967,559.819A74.3,74.3,0,0,1,362.8,589.34c.208.51-.62.732-.826.228a73.537,73.537,0,0,0-21.611-29.142c-.428-.348.182-.951.606-.606Z" transform="translate(-333.8 -479.372)" fill="#fff"/>
  <path id="Path_8617" data-name="Path 8617" d="M477,584.432a8.419,8.419,0,0,1-3.021-7.257,6.806,6.806,0,0,1,5.06-5.778,5.729,5.729,0,0,1,6.523,3.625c.446-5.027.96-10.266,3.633-14.547a15.406,15.406,0,0,1,11.155-7.147,13.823,13.823,0,0,1,12.16,4.964,12.545,12.545,0,0,1,1.543,12.916c-1.462,3.033-4.155,5.29-6.977,7.126a45.03,45.03,0,0,1-30.8,6.737" transform="translate(-437.376 -474.363)" fill="#f2f2f2"/>
  <path id="Path_8618" data-name="Path 8618" d="M550.042,559.819a74.3,74.3,0,0,0-21.832,29.521c-.208.51.62.732.826.228a73.474,73.474,0,0,1,21.611-29.143c.428-.348-.182-.951-.606-.606Z" transform="translate(-479.397 -479.372)" fill="#fff"/>
  <circle id="Ellipse_45" data-name="Ellipse 45" cx="6.987" cy="6.987" r="6.987" transform="translate(38.829 36.062)" fill="#f2f2f2"/>
  <path id="Path_8619" data-name="Path 8619" d="M354.829,287.388h48.139v2.634H360.974a18.8,18.8,0,0,0-18.8,18.8v29.922H336.9a.878.878,0,0,1-.878-.878V306.189a18.8,18.8,0,0,1,18.8-18.8Z" transform="translate(-330.555 -268.424)" fill="#f2f2f2"/>
  <path id="Path_8620" data-name="Path 8620" d="M460.527,554.757V514.75h11.72v40.007a1.015,1.015,0,0,1-1.014,1.014h-9.692A1.015,1.015,0,0,1,460.527,554.757Z" transform="translate(-426.994 -444.541)"/>
  <path id="Path_8621" data-name="Path 8621" d="M325.027,332.315V299.784A19.556,19.556,0,0,1,344.56,280.25h49.661v53.192H326.154A1.128,1.128,0,0,1,325.027,332.315ZM393.771,280.7H344.56a19.1,19.1,0,0,0-19.083,19.083v32.531a.677.677,0,0,0,.676.676h67.617Z" transform="translate(-322.034 -262.895)" fill="#3f3d56"/>
  <path id="Path_8622" data-name="Path 8622" d="M440.664,249.906a4.062,4.062,0,0,1-4.057-4.057V216.773a.677.677,0,0,0-.676-.676H420.154a1.128,1.128,0,0,1-1.127-1.127V204.377a1.128,1.128,0,0,1,1.127-1.127h23.44a1.128,1.128,0,0,1,1.127,1.127v41.472A4.062,4.062,0,0,1,440.664,249.906Z" transform="translate(-394.848 -203.25)" fill="#fd4dd7"/>
  <path id="Path_8623" data-name="Path 8623" d="M595.874,278.25h0a12.82,12.82,0,0,1,12.847,12.793v37.034h25.244a3.824,3.824,0,0,1,3.832,3.816h-54.77V291.043A12.82,12.82,0,0,1,595.874,278.25Z" transform="translate(-521.884 -261.346)"/>
  <path id="Path_8624" data-name="Path 8624" d="M626.269,272.518l2.66,10.989,52.038-12.6-2.66-10.989a.82.82,0,0,0-.531-.585.809.809,0,0,0-.3-.045l-30.08-15.575a.83.83,0,0,0-1.049.252l-14.5,20.216-5.465,7.623a.116.116,0,0,0-.02.094A.821.821,0,0,0,626.269,272.518Z" transform="translate(-555.362 -234.525)" fill="#fff"/>
  <path id="Path_8625" data-name="Path 8625" d="M626.756,271.9a.11.11,0,0,0,.046.071.126.126,0,0,0,.1.019.121.121,0,0,0,.067-.047l.019-.026.285-.4,5.168-7.2,14.493-20.211a.59.59,0,0,1,.749-.179l29.847,15.454.268.139.033.012a.361.361,0,0,1,.061-.006.115.115,0,0,0,.065-.055.118.118,0,0,0-.049-.16l-.037-.02-30.08-15.575a.83.83,0,0,0-1.049.252l-14.5,20.216-5.465,7.623A.116.116,0,0,0,626.756,271.9Z" transform="translate(-555.755 -234.525)" fill="#3f3d56"/>
  <path id="Path_8626" data-name="Path 8626" d="M693.039,258.015l1.158.129,8.6.952,5.7.631.337.037,7.112-5.555.272-.213,1.68-1.312,5.976-4.667.036-.328,2.125-19.184a1,1,0,0,0-.886-1.107l-28.366-3.142a1,1,0,0,0-1.107.886l-1.5,13.532-.831,7.5-.744,6.712-.345,3.117-.1.9A1,1,0,0,0,693.039,258.015Z" transform="translate(-606.409 -219.518)" fill="#e6e6e6"/>
  <path id="Path_8627" data-name="Path 8627" d="M726.182,289.342,738.47,290.7l4.358.483a1.474,1.474,0,0,0,.325-2.93l-5.42-.6-11.224-1.245a1.475,1.475,0,0,0-.325,2.931Z" transform="translate(-631.758 -267.66)" fill="#fff"/>
  <path id="Path_8628" data-name="Path 8628" d="M723.408,313.511c.032.006.063.011.1.014l14.264,1.58,2.381.264a1.475,1.475,0,0,0,.324-2.931l-3.444-.381-11.3-1.252-1.9-.211a1.474,1.474,0,0,0-.421,2.916Z" transform="translate(-629.683 -286.394)" fill="#fff"/>
  <path id="Path_8629" data-name="Path 8629" d="M719.7,337.264a1.474,1.474,0,0,0,1.1.7l5.846.647,10.412,1.154h0l.333.037,1.68-1.312a1.46,1.46,0,0,0,0-.3,1.477,1.477,0,0,0-1.3-1.313l-1.446-.161-5.738-.635-4.128-.458-5.333-.591a1.474,1.474,0,0,0-1.424,2.227Z" transform="translate(-627.586 -305.327)" fill="#fff"/>
  <path id="Path_8630" data-name="Path 8630" d="M752.352,259.868l3.057.339,1.35.15,2.04.226a1.475,1.475,0,1,0,.324-2.931l-6.446-.713a1.474,1.474,0,1,0-.326,2.93Z" transform="translate(-652.029 -244.83)" fill="#fff"/>
  <path id="Path_8631" data-name="Path 8631" d="M645.847,278.849l3.727,15.4,6.221,1.183,5.755,1.1,6.174,1.175,1.973.375a.828.828,0,0,0,.663-.16l1.583-1.236,1-.783,7.112-5.555-4.522-18.679a.993.993,0,0,0-.281-.487,1,1,0,0,0-.93-.252l-27.739,6.715A1,1,0,0,0,645.847,278.849Z" transform="translate(-570.523 -255.65)" fill="#fd4dd7"/>
  <path id="Path_8632" data-name="Path 8632" d="M683.722,340.728a1.475,1.475,0,0,0,1.78,1.086l16.276-3.94a1.476,1.476,0,0,0,1.086-1.78.462.462,0,0,0-.016-.056,1.474,1.474,0,0,0-1.764-1.03l-16.276,3.94A1.475,1.475,0,0,0,683.722,340.728Z" transform="translate(-599.851 -305.279)" fill="#fff"/>
  <path id="Path_8633" data-name="Path 8633" d="M690.082,363.376l5.755,1.1,12.19-2.951a1.474,1.474,0,1,0-.694-2.866l-16.276,3.94a1.463,1.463,0,0,0-.845.566A1.479,1.479,0,0,0,690.082,363.376Z" transform="translate(-604.81 -323.596)" fill="#fff"/>
  <path id="Path_8634" data-name="Path 8634" d="M743.008,386.308l1.973.375a.828.828,0,0,0,.663-.16l1.583-1.236Z" transform="translate(-645.807 -344.258)" fill="#fff"/>
  <path id="Path_8635" data-name="Path 8635" d="M698.272,312.394a1.475,1.475,0,0,0,1.78,1.086l6.3-1.526a1.476,1.476,0,0,0,1.086-1.78,1.457,1.457,0,0,0-.272-.56,1.475,1.475,0,0,0-1.508-.526l-6.3,1.526A1.474,1.474,0,0,0,698.272,312.394Z" transform="translate(-611.122 -285.202)" fill="#fff"/>
  <path id="Path_8636" data-name="Path 8636" d="M646.388,329.237l6.175,1.175,1.972.376a.831.831,0,0,0,.662-.16l1.584-1.236-.556.135-1.173.915a.594.594,0,0,1-.473.115l-1.46-.278-6.175-1.175Zm18.445-6.432.06.248.274-.213Zm-18.445,6.432,6.175,1.175,1.972.376a.831.831,0,0,0,.662-.16l1.584-1.236-.556.135-1.173.915a.594.594,0,0,1-.473.115l-1.46-.278-6.175-1.175Zm0,0,6.175,1.175,1.972.376a.831.831,0,0,0,.662-.16l1.584-1.236-.556.135-1.173.915a.594.594,0,0,1-.473.115l-1.46-.278-6.175-1.175Zm-20.119-2.882,6.968,28.784a.826.826,0,0,0,1,.608l50.433-12.209a.826.826,0,0,0,.608-1l-6.968-28.784a.82.82,0,0,0-.531-.585.811.811,0,0,0-.3-.045.779.779,0,0,0-.341.09.715.715,0,0,0-.137.085l-4.139,3.232-6.011,4.7-2.014,1.573v0h0l-7.385,5.765-1.221.955-1.173.915a.594.594,0,0,1-.473.115l-1.46-.278-6.175-1.175-6.181-1.175-13.537-2.576a.81.81,0,0,0-.349.008.827.827,0,0,0-.4.233.926.926,0,0,0-.111.147.821.821,0,0,0-.094.617Zm20.119,2.882,6.175,1.175,1.972.376a.831.831,0,0,0,.662-.16l1.584-1.236-.556.135-1.173.915a.594.594,0,0,1-.473.115l-1.46-.278-6.175-1.175Zm0,0,6.175,1.175,1.972.376a.831.831,0,0,0,.662-.16l1.584-1.236-.556.135-1.173.915a.594.594,0,0,1-.473.115l-1.46-.278-6.175-1.175Zm0,0,6.175,1.175,1.972.376a.831.831,0,0,0,.662-.16l1.584-1.236-.556.135-1.173.915a.594.594,0,0,1-.473.115l-1.46-.278-6.175-1.175Z" transform="translate(-555.362 -288.362)" fill="#fff"/>
  <path id="Path_8637" data-name="Path 8637" d="M646.388,329.237l6.175,1.175,1.972.376a.831.831,0,0,0,.662-.16l1.584-1.236-.556.135-1.173.915a.594.594,0,0,1-.473.115l-1.46-.278-6.175-1.175Zm18.445-6.432.06.248.274-.213Zm-18.445,6.432,6.175,1.175,1.972.376a.831.831,0,0,0,.662-.16l1.584-1.236-.556.135-1.173.915a.594.594,0,0,1-.473.115l-1.46-.278-6.175-1.175Zm0,0,6.175,1.175,1.972.376a.831.831,0,0,0,.662-.16l1.584-1.236-.556.135-1.173.915a.594.594,0,0,1-.473.115l-1.46-.278-6.175-1.175Zm-19.8-3.481.031.023c.005-.008.014-.016.021-.025a.6.6,0,0,1,.538-.173l13.453,2.559,5.754,1.1,6.175,1.175,1.972.376a.831.831,0,0,0,.662-.16l1.584-1.236-.556.135-1.173.915a.594.594,0,0,1-.473.115l-1.46-.278-6.175-1.175-6.181-1.176-13.537-2.576a.809.809,0,0,0-.349.008Zm-.324.6,6.968,28.784a.826.826,0,0,0,1,.608l50.433-12.209a.826.826,0,0,0,.608-1l-6.968-28.784a.82.82,0,0,0-.531-.585.81.81,0,0,0-.3-.045.779.779,0,0,0-.341.09.716.716,0,0,0-.137.085l-4.139,3.232-6.011,4.7-2.014,1.573v0h0l-7.385,5.765-1.221.955-1.173.915a.594.594,0,0,1-.473.115l-1.46-.278-6.175-1.175-6.181-1.176-13.537-2.576a.809.809,0,0,0-.349.008.827.827,0,0,0-.4.233.927.927,0,0,0-.111.147.821.821,0,0,0-.094.617Zm.23-.056a.585.585,0,0,1,.1-.494.076.076,0,0,1,.02-.026c.005-.008.014-.016.021-.025a.6.6,0,0,1,.538-.173l13.453,2.559,5.754,1.1,6.175,1.175,1.972.376a.831.831,0,0,0,.662-.16l1.584-1.236,1-.783,7.11-5.555.274-.213,1.678-1.311,5.977-4.668,4.321-3.374a.587.587,0,0,1,.222-.107.449.449,0,0,1,.069-.011.362.362,0,0,1,.061-.006.6.6,0,0,1,.2.033.592.592,0,0,1,.38.418l6.968,28.784a.59.59,0,0,1-.435.713L634.179,355.52a.59.59,0,0,1-.712-.436Zm19.889,2.938,6.175,1.175,1.972.376a.831.831,0,0,0,.662-.16l1.584-1.236-.556.135-1.173.915a.594.594,0,0,1-.473.115l-1.46-.278-6.175-1.175Zm0,0,6.175,1.175,1.972.376a.831.831,0,0,0,.662-.16l1.584-1.236-.556.135-1.173.915a.594.594,0,0,1-.473.115l-1.46-.278-6.175-1.175Zm0,0,6.175,1.175,1.972.376a.831.831,0,0,0,.662-.16l1.584-1.236-.556.135-1.173.915a.594.594,0,0,1-.473.115l-1.46-.278-6.175-1.175Z" transform="translate(-555.362 -288.362)" fill="#3f3d56"/>
  <path id="Path_8638" data-name="Path 8638" d="M826.953,409.9a1.832,1.832,0,0,1,1.348-2.209l6.365-1.541a1.83,1.83,0,0,1,.861,3.557l-6.365,1.541A1.832,1.832,0,0,1,826.953,409.9Z" transform="translate(-710.792 -360.379)" fill="#fd4dd7"/>
  <circle id="Ellipse_46" data-name="Ellipse 46" cx="1.578" cy="1.578" r="1.578" transform="translate(44.239 41.021)" fill="#fff"/>
</svg>
