<svg xmlns="http://www.w3.org/2000/svg" width="65.627" height="65.627" viewBox="0 0 65.627 65.627">
  <path id="Path_8795" data-name="Path 8795" d="M62.939,67.627H6.688V62.939a7.031,7.031,0,0,1,7.031-7.031H55.908a7.031,7.031,0,0,1,7.031,7.031ZM34.813,11.375A2.343,2.343,0,0,1,32.47,9.031V4.344a2.344,2.344,0,1,1,4.688,0V9.031A2.343,2.343,0,0,1,34.813,11.375Zm-18.23,7.552a2.337,2.337,0,0,1-1.657-.687l-3.314-3.314a2.343,2.343,0,0,1,3.314-3.314l3.314,3.314a2.344,2.344,0,0,1-1.657,4Zm36.46,0a2.344,2.344,0,0,1-1.657-4L54.7,11.612a2.343,2.343,0,0,1,3.314,3.314L54.7,18.24A2.337,2.337,0,0,1,53.044,18.927ZM9.031,37.157H4.344a2.344,2.344,0,1,1,0-4.688H9.031a2.344,2.344,0,1,1,0,4.688Zm56.252,0H60.6a2.344,2.344,0,0,1,0-4.688h4.688a2.344,2.344,0,0,1,0,4.688ZM53.564,51.22V34.813a18.751,18.751,0,0,0-37.5,0V51.22ZM34.893,25.148a2.347,2.347,0,0,1,2.855-1.683,11.73,11.73,0,0,1,8.414,8.417,2.344,2.344,0,1,1-4.538,1.174A7.041,7.041,0,0,0,36.576,28,2.345,2.345,0,0,1,34.893,25.148Z" transform="translate(-2 -2)" fill="#fd4dd7"/>
</svg>
